<?xml version="1.0" encoding="utf-8"?><svg xmlns="http://www.w3.org/2000/svg" xmlns:xlink="http://www.w3.org/1999/xlink"><symbol viewBox="0 0 32 32" id="burger" xmlns="http://www.w3.org/2000/svg"><path d="M28 10H4a1 1 0 010-2h24a1 1 0 010 2zm0 7H4a1 1 0 010-2h24a1 1 0 010 2zm0 7H4a1 1 0 010-2h24a1 1 0 010 2z" data-name="Layer 2"/><path d="M0 0h32v32H0z"/></symbol><symbol viewBox="0 0 24 25" id="icon-alphabet" xmlns="http://www.w3.org/2000/svg"><g clip-path="url(#ba)"><path d="M2.964 19.352l.928-2.641h5.606l.927 2.642h2.985L8.348 5.468H5.061L0 19.352h2.964zm5.767-4.866H4.658l2.037-5.8 2.036 5.8zm9.49 5.045c.833 0 1.57-.169 2.208-.506.638-.338 1.139-.765 1.502-1.281v1.608h2.843V8.35h-2.843v1.569c-.377-.503-.877-.92-1.502-1.251-.625-.331-1.355-.497-2.188-.497-.955 0-1.819.232-2.591.695-.774.464-1.385 1.126-1.835 1.986-.45.861-.676 1.848-.676 2.96 0 1.125.225 2.122.676 2.99.45.867 1.062 1.539 1.835 2.015.772.477 1.63.715 2.57.715zm.746-2.443c-.511 0-.992-.132-1.442-.397a2.95 2.95 0 01-1.09-1.142c-.275-.497-.412-1.076-.412-1.738 0-.662.137-1.235.413-1.718.276-.483.635-.85 1.079-1.102a2.893 2.893 0 011.452-.378c.524 0 1.015.13 1.472.387.457.259.82.63 1.089 1.113s.403 1.062.403 1.738c0 .675-.134 1.254-.403 1.738a2.82 2.82 0 01-1.09 1.112 2.945 2.945 0 01-1.471.387z"/></g><defs><clipPath id="ba"><path d="M0 0h24v25H0z"/></clipPath></defs></symbol><symbol viewBox="0 0 24 16" id="icon-focus" xmlns="http://www.w3.org/2000/svg"><path d="M11.35 0h1.29c.078.017.154.043.234.048a10.09 10.09 0 012.711.604c3.099 1.146 5.628 3.085 7.714 5.616.948 1.15.926 2.32-.014 3.483-1.294 1.601-2.83 2.931-4.56 4.039-1.426.91-2.945 1.613-4.608 1.968-.487.103-.984.163-1.476.242H11.35c-.077-.017-.156-.043-.236-.048a9.874 9.874 0 01-2.354-.491C5.47 14.346 2.828 12.32.636 9.67a2.662 2.662 0 01-.628-1.484c-.065-.803.285-1.455.777-2.05A19.144 19.144 0 015.4 2.12C6.857 1.206 8.407.513 10.107.189 10.519.11 10.934.062 11.35 0zM6.994 8.001c0 2.74 2.244 4.988 4.987 4.993 2.75.007 5.013-2.25 5.013-4.998 0-2.74-2.248-4.985-4.992-4.99A5.004 5.004 0 006.994 8zm5.942-2.828c-.996.831-1.214 1.72-.629 2.567.59.853 1.479.952 2.667.297.122 1.021-.737 2.296-1.856 2.747a3.01 3.01 0 01-3.527-.987c-.821-1.105-.802-2.604.048-3.658.806-1.002 2.253-1.426 3.297-.966z"/></symbol><symbol viewBox="0 0 24 20" id="icon-list" xmlns="http://www.w3.org/2000/svg"><path d="M23.604.34c-.12-.088-.26-.118-.396-.155H4.828a2.456 2.456 0 01.002 3.58c6.085-.003 12.17-.006 18.253-.006h.072a.779.779 0 00.519-.192c.17-.14.261-.33.326-.537V.934a1.025 1.025 0 00-.396-.595zM3.797 1.974c0 1.09-.85 1.974-1.899 1.974C.85 3.95 0 3.065 0 1.975 0 .884.85 0 1.898 0c1.05 0 1.899.884 1.899 1.975zm19.411 3.564H4.828c.474.445.776 1.079.776 1.79a2.45 2.45 0 01-.773 1.79c6.084-.003 12.168-.003 18.252-.003h.072a.781.781 0 00.519-.194c.17-.14.261-.33.326-.537V6.288a1.025 1.025 0 00-.396-.594c-.12-.085-.26-.117-.396-.155zM3.797 7.33c0 1.09-.85 1.977-1.899 1.977C.85 9.306 0 8.42 0 7.329c0-1.088.85-1.975 1.898-1.975 1.05 0 1.899.887 1.899 1.975zm19.411 3.56H4.828a2.452 2.452 0 01.003 3.58c6.084-.003 12.168-.003 18.252-.003h.072a.781.781 0 00.519-.195c.17-.14.261-.33.326-.534v-2.1a1.025 1.025 0 00-.396-.594c-.12-.084-.26-.117-.396-.154zM3.797 12.68c0 1.09-.85 1.976-1.899 1.976C.85 14.655 0 13.77 0 12.68c0-1.089.85-1.975 1.898-1.975 1.05 0 1.899.886 1.899 1.974zm19.411 3.557H4.828a2.456 2.456 0 01.002 3.58c6.085-.003 12.17-.006 18.253-.006h.072a.767.767 0 00.519-.192c.17-.14.261-.33.326-.537v-2.096a1.025 1.025 0 00-.396-.595c-.12-.087-.26-.117-.396-.154zm-19.411 1.79c0 1.09-.85 1.974-1.899 1.974C.85 20 0 19.116 0 18.026c0-1.091.85-1.975 1.898-1.975 1.05 0 1.899.884 1.899 1.975z"/></symbol><symbol viewBox="0 0 24 25" id="icon-split" xmlns="http://www.w3.org/2000/svg"><path d="M13.161 1.563H1.548C.693 1.563 0 2.263 0 3.125v18.75c0 .863.693 1.563 1.548 1.563h11.613c.855 0 1.549-.7 1.549-1.563V3.125c0-.863-.694-1.563-1.549-1.563zm9.291 0H18.58c-.855 0-1.549.7-1.549 1.562v18.75c0 .863.694 1.563 1.549 1.563h3.87c.856 0 1.549-.7 1.549-1.563V3.125c0-.863-.693-1.563-1.548-1.563z"/></symbol><symbol viewBox="0 0 24 25" id="icon-uploads" xmlns="http://www.w3.org/2000/svg"><path d="M9.023 24.054V9.753l-5.239 5.311a.919.919 0 01-1.31 0L.27 12.831a.95.95 0 010-1.329L11.345.275a.919.919 0 011.31 0L23.73 11.502a.95.95 0 010 1.33l-2.203 2.232a.918.918 0 01-1.31 0L14.59 9.365v14.693a.934.934 0 01-.929.942H9.948a.942.942 0 01-.925-.946z"/></symbol></svg>